# xmcd
#
# Track frame offsets: 
#        150
#        3907
#        21097
#        23211
#        41224
#        42707
#        62327
#        63963
#        80551
#        122314
#        122967
#        141532
#        142566
#        165829
#        167646
#        185416
#
# Disc length: 2486 seconds
#
# Revision: 0
# Processed by: cddbd v1.5.2PL0 Copyright (c) Steve Scherf et al.
# Submitted via: ExactAudioCopy v1.0b3
#
DISCID=cd09b410
DTITLE=Adele - KCRW Sessions: Morning Becomes Eclectic 02-25-2011
DYEAR=2011
DGENRE=R&B
TTITLE0=(=Intro=)
TTITLE1=Hometown Glory
TTITLE2=(-talk-)
TTITLE3=Don't You Remember
TTITLE4=(-talk-)
TTITLE5=Turning Tables
TTITLE6=(-partial band intro-)
TTITLE7=Chasing Pavements
TTITLE8=(=interview=)
TTITLE9=(-talk-)
TTITLE10=Take It All
TTITLE11=(-joking-)
TTITLE12=Someone Like You
TTITLE13=(-talk-)
TTITLE14=Rolling in the Deep
TTITLE15=(=Outro=)
EXTD=
EXTT0=
EXTT1=
EXTT2=
EXTT3=
EXTT4=
EXTT5=
EXTT6=
EXTT7=
EXTT8=
EXTT9=
EXTT10=
EXTT11=
EXTT12=
EXTT13=
EXTT14=
EXTT15=
PLAYORDER=
